<mxfile host="app.diagrams.net" modified="2022-04-19T02:19:40.822Z" agent="5.0 (Windows NT 10.0; Win64; x64) AppleWebKit/537.36 (KHTML, like Gecko) Chrome/100.0.4896.127 Safari/537.36 Edg/100.0.1185.44" etag="tpEYnrslNz4LNnOl6kkj" version="17.4.5" type="github">
  <diagram id="ABOKPcimIyKY_ws319-J" name="第 1 页">
    <mxGraphModel dx="593" dy="326" grid="1" gridSize="10" guides="1" tooltips="1" connect="1" arrows="1" fold="1" page="1" pageScale="1" pageWidth="827" pageHeight="1169" math="0" shadow="0">
      <root>
        <mxCell id="0" />
        <mxCell id="1" parent="0" />
        <mxCell id="yEL_NRiNMlTO7ilGv06s-1" style="edgeStyle=none;rounded=0;orthogonalLoop=1;jettySize=auto;html=1;entryX=1;entryY=0;entryDx=0;entryDy=0;exitX=0.5;exitY=1;exitDx=0;exitDy=0;" edge="1" parent="1" source="yEL_NRiNMlTO7ilGv06s-3" target="yEL_NRiNMlTO7ilGv06s-4">
          <mxGeometry relative="1" as="geometry" />
        </mxCell>
        <mxCell id="yEL_NRiNMlTO7ilGv06s-2" style="edgeStyle=none;rounded=0;orthogonalLoop=1;jettySize=auto;html=1;exitX=0.5;exitY=1;exitDx=0;exitDy=0;" edge="1" parent="1" source="yEL_NRiNMlTO7ilGv06s-3" target="yEL_NRiNMlTO7ilGv06s-5">
          <mxGeometry relative="1" as="geometry" />
        </mxCell>
        <mxCell id="yEL_NRiNMlTO7ilGv06s-3" value="" style="ellipse;whiteSpace=wrap;html=1;aspect=fixed;" vertex="1" parent="1">
          <mxGeometry x="216" y="90" width="40" height="40" as="geometry" />
        </mxCell>
        <mxCell id="yEL_NRiNMlTO7ilGv06s-4" value="" style="ellipse;whiteSpace=wrap;html=1;aspect=fixed;" vertex="1" parent="1">
          <mxGeometry x="148" y="150" width="40" height="40" as="geometry" />
        </mxCell>
        <mxCell id="yEL_NRiNMlTO7ilGv06s-5" value="" style="ellipse;whiteSpace=wrap;html=1;aspect=fixed;" vertex="1" parent="1">
          <mxGeometry x="282" y="150" width="40" height="40" as="geometry" />
        </mxCell>
        <mxCell id="yEL_NRiNMlTO7ilGv06s-6" style="edgeStyle=none;rounded=0;orthogonalLoop=1;jettySize=auto;html=1;entryX=1;entryY=0;entryDx=0;entryDy=0;exitX=0.5;exitY=1;exitDx=0;exitDy=0;" edge="1" parent="1" target="yEL_NRiNMlTO7ilGv06s-8">
          <mxGeometry relative="1" as="geometry">
            <mxPoint x="168" y="190" as="sourcePoint" />
          </mxGeometry>
        </mxCell>
        <mxCell id="yEL_NRiNMlTO7ilGv06s-7" style="edgeStyle=none;rounded=0;orthogonalLoop=1;jettySize=auto;html=1;exitX=0.5;exitY=1;exitDx=0;exitDy=0;" edge="1" parent="1" target="yEL_NRiNMlTO7ilGv06s-9">
          <mxGeometry relative="1" as="geometry">
            <mxPoint x="168" y="190" as="sourcePoint" />
          </mxGeometry>
        </mxCell>
        <mxCell id="yEL_NRiNMlTO7ilGv06s-8" value="" style="ellipse;whiteSpace=wrap;html=1;aspect=fixed;" vertex="1" parent="1">
          <mxGeometry x="110" y="210" width="40" height="40" as="geometry" />
        </mxCell>
        <mxCell id="yEL_NRiNMlTO7ilGv06s-9" value="" style="ellipse;whiteSpace=wrap;html=1;aspect=fixed;" vertex="1" parent="1">
          <mxGeometry x="186" y="210" width="40" height="40" as="geometry" />
        </mxCell>
        <mxCell id="yEL_NRiNMlTO7ilGv06s-10" style="edgeStyle=none;rounded=0;orthogonalLoop=1;jettySize=auto;html=1;entryX=1;entryY=0;entryDx=0;entryDy=0;exitX=0.5;exitY=1;exitDx=0;exitDy=0;" edge="1" parent="1" target="yEL_NRiNMlTO7ilGv06s-12">
          <mxGeometry relative="1" as="geometry">
            <mxPoint x="302" y="190" as="sourcePoint" />
          </mxGeometry>
        </mxCell>
        <mxCell id="yEL_NRiNMlTO7ilGv06s-11" style="edgeStyle=none;rounded=0;orthogonalLoop=1;jettySize=auto;html=1;exitX=0.5;exitY=1;exitDx=0;exitDy=0;" edge="1" parent="1" target="yEL_NRiNMlTO7ilGv06s-13">
          <mxGeometry relative="1" as="geometry">
            <mxPoint x="302" y="190" as="sourcePoint" />
          </mxGeometry>
        </mxCell>
        <mxCell id="yEL_NRiNMlTO7ilGv06s-12" value="" style="ellipse;whiteSpace=wrap;html=1;aspect=fixed;" vertex="1" parent="1">
          <mxGeometry x="244" y="210" width="40" height="40" as="geometry" />
        </mxCell>
        <mxCell id="yEL_NRiNMlTO7ilGv06s-13" value="" style="ellipse;whiteSpace=wrap;html=1;aspect=fixed;" vertex="1" parent="1">
          <mxGeometry x="320" y="210" width="40" height="40" as="geometry" />
        </mxCell>
        <mxCell id="yEL_NRiNMlTO7ilGv06s-17" value="" style="group" vertex="1" connectable="0" parent="1">
          <mxGeometry x="383.0000000000001" y="90" width="46" height="160" as="geometry" />
        </mxCell>
        <mxCell id="yEL_NRiNMlTO7ilGv06s-14" value="" style="rounded=0;whiteSpace=wrap;html=1;" vertex="1" parent="yEL_NRiNMlTO7ilGv06s-17">
          <mxGeometry x="0.9999999999998863" width="30" height="160" as="geometry" />
        </mxCell>
        <mxCell id="yEL_NRiNMlTO7ilGv06s-15" value="" style="endArrow=none;html=1;rounded=0;exitX=-0.024;exitY=0.314;exitDx=0;exitDy=0;exitPerimeter=0;" edge="1" parent="yEL_NRiNMlTO7ilGv06s-17" source="yEL_NRiNMlTO7ilGv06s-14">
          <mxGeometry width="50" height="50" relative="1" as="geometry">
            <mxPoint x="21.999999999999886" y="50" as="sourcePoint" />
            <mxPoint x="30.999999999999886" y="50" as="targetPoint" />
          </mxGeometry>
        </mxCell>
        <mxCell id="yEL_NRiNMlTO7ilGv06s-16" value="" style="endArrow=none;html=1;rounded=0;exitX=-0.024;exitY=0.314;exitDx=0;exitDy=0;exitPerimeter=0;" edge="1" parent="yEL_NRiNMlTO7ilGv06s-17">
          <mxGeometry width="50" height="50" relative="1" as="geometry">
            <mxPoint y="110.24000000000001" as="sourcePoint" />
            <mxPoint x="30.719999999999914" y="110" as="targetPoint" />
          </mxGeometry>
        </mxCell>
        <mxCell id="yEL_NRiNMlTO7ilGv06s-27" value="✅" style="text;html=1;strokeColor=none;fillColor=none;align=center;verticalAlign=middle;whiteSpace=wrap;rounded=0;" vertex="1" parent="yEL_NRiNMlTO7ilGv06s-17">
          <mxGeometry x="8" y="65" width="16" height="30" as="geometry" />
        </mxCell>
        <mxCell id="yEL_NRiNMlTO7ilGv06s-34" value="❎" style="text;html=1;strokeColor=none;fillColor=none;align=center;verticalAlign=middle;whiteSpace=wrap;rounded=0;" vertex="1" parent="yEL_NRiNMlTO7ilGv06s-17">
          <mxGeometry x="8" y="120" width="16" height="30" as="geometry" />
        </mxCell>
        <mxCell id="yEL_NRiNMlTO7ilGv06s-35" value="✅" style="text;html=1;strokeColor=none;fillColor=none;align=center;verticalAlign=middle;whiteSpace=wrap;rounded=0;" vertex="1" parent="yEL_NRiNMlTO7ilGv06s-17">
          <mxGeometry x="8" y="10" width="16" height="30" as="geometry" />
        </mxCell>
        <mxCell id="yEL_NRiNMlTO7ilGv06s-18" value="res" style="text;html=1;strokeColor=none;fillColor=none;align=center;verticalAlign=middle;whiteSpace=wrap;rounded=0;" vertex="1" parent="1">
          <mxGeometry x="368.5" y="60" width="60" height="30" as="geometry" />
        </mxCell>
        <mxCell id="yEL_NRiNMlTO7ilGv06s-19" value="0" style="text;html=1;strokeColor=none;fillColor=none;align=center;verticalAlign=middle;whiteSpace=wrap;rounded=0;" vertex="1" parent="1">
          <mxGeometry x="415" y="100" width="30" height="30" as="geometry" />
        </mxCell>
        <mxCell id="yEL_NRiNMlTO7ilGv06s-20" value="1" style="text;html=1;strokeColor=none;fillColor=none;align=center;verticalAlign=middle;whiteSpace=wrap;rounded=0;" vertex="1" parent="1">
          <mxGeometry x="415" y="155" width="30" height="30" as="geometry" />
        </mxCell>
        <mxCell id="yEL_NRiNMlTO7ilGv06s-21" value="2" style="text;html=1;strokeColor=none;fillColor=none;align=center;verticalAlign=middle;whiteSpace=wrap;rounded=0;" vertex="1" parent="1">
          <mxGeometry x="425" y="210" width="10" height="30" as="geometry" />
        </mxCell>
        <mxCell id="yEL_NRiNMlTO7ilGv06s-22" value="0" style="text;html=1;strokeColor=none;fillColor=none;align=center;verticalAlign=middle;whiteSpace=wrap;rounded=0;" vertex="1" parent="1">
          <mxGeometry x="57" y="90" width="60" height="30" as="geometry" />
        </mxCell>
        <mxCell id="yEL_NRiNMlTO7ilGv06s-23" value="1" style="text;html=1;strokeColor=none;fillColor=none;align=center;verticalAlign=middle;whiteSpace=wrap;rounded=0;" vertex="1" parent="1">
          <mxGeometry x="57" y="145" width="60" height="30" as="geometry" />
        </mxCell>
        <mxCell id="yEL_NRiNMlTO7ilGv06s-24" value="2" style="text;html=1;strokeColor=none;fillColor=none;align=center;verticalAlign=middle;whiteSpace=wrap;rounded=0;" vertex="1" parent="1">
          <mxGeometry x="57" y="212" width="60" height="30" as="geometry" />
        </mxCell>
        <mxCell id="yEL_NRiNMlTO7ilGv06s-26" value="✅" style="text;html=1;strokeColor=none;fillColor=none;align=center;verticalAlign=middle;whiteSpace=wrap;rounded=0;" vertex="1" parent="1">
          <mxGeometry x="122.00000000000011" y="215" width="16" height="30" as="geometry" />
        </mxCell>
        <mxCell id="yEL_NRiNMlTO7ilGv06s-36" style="edgeStyle=none;rounded=0;orthogonalLoop=1;jettySize=auto;html=1;entryX=1;entryY=0;entryDx=0;entryDy=0;exitX=0.5;exitY=1;exitDx=0;exitDy=0;" edge="1" source="yEL_NRiNMlTO7ilGv06s-38" target="yEL_NRiNMlTO7ilGv06s-39" parent="1">
          <mxGeometry relative="1" as="geometry" />
        </mxCell>
        <mxCell id="yEL_NRiNMlTO7ilGv06s-37" style="edgeStyle=none;rounded=0;orthogonalLoop=1;jettySize=auto;html=1;exitX=0.5;exitY=1;exitDx=0;exitDy=0;" edge="1" source="yEL_NRiNMlTO7ilGv06s-38" target="yEL_NRiNMlTO7ilGv06s-40" parent="1">
          <mxGeometry relative="1" as="geometry" />
        </mxCell>
        <mxCell id="yEL_NRiNMlTO7ilGv06s-38" value="" style="ellipse;whiteSpace=wrap;html=1;aspect=fixed;" vertex="1" parent="1">
          <mxGeometry x="229" y="350" width="40" height="40" as="geometry" />
        </mxCell>
        <mxCell id="yEL_NRiNMlTO7ilGv06s-39" value="" style="ellipse;whiteSpace=wrap;html=1;aspect=fixed;" vertex="1" parent="1">
          <mxGeometry x="161" y="410" width="40" height="40" as="geometry" />
        </mxCell>
        <mxCell id="yEL_NRiNMlTO7ilGv06s-40" value="" style="ellipse;whiteSpace=wrap;html=1;aspect=fixed;" vertex="1" parent="1">
          <mxGeometry x="295" y="410" width="40" height="40" as="geometry" />
        </mxCell>
        <mxCell id="yEL_NRiNMlTO7ilGv06s-41" style="edgeStyle=none;rounded=0;orthogonalLoop=1;jettySize=auto;html=1;entryX=1;entryY=0;entryDx=0;entryDy=0;exitX=0.5;exitY=1;exitDx=0;exitDy=0;" edge="1" target="yEL_NRiNMlTO7ilGv06s-43" parent="1">
          <mxGeometry relative="1" as="geometry">
            <mxPoint x="181" y="450" as="sourcePoint" />
          </mxGeometry>
        </mxCell>
        <mxCell id="yEL_NRiNMlTO7ilGv06s-42" style="edgeStyle=none;rounded=0;orthogonalLoop=1;jettySize=auto;html=1;exitX=0.5;exitY=1;exitDx=0;exitDy=0;" edge="1" target="yEL_NRiNMlTO7ilGv06s-44" parent="1">
          <mxGeometry relative="1" as="geometry">
            <mxPoint x="181" y="450" as="sourcePoint" />
          </mxGeometry>
        </mxCell>
        <mxCell id="yEL_NRiNMlTO7ilGv06s-43" value="" style="ellipse;whiteSpace=wrap;html=1;aspect=fixed;" vertex="1" parent="1">
          <mxGeometry x="123" y="470" width="40" height="40" as="geometry" />
        </mxCell>
        <mxCell id="yEL_NRiNMlTO7ilGv06s-44" value="" style="ellipse;whiteSpace=wrap;html=1;aspect=fixed;" vertex="1" parent="1">
          <mxGeometry x="199" y="470" width="40" height="40" as="geometry" />
        </mxCell>
        <mxCell id="yEL_NRiNMlTO7ilGv06s-45" style="edgeStyle=none;rounded=0;orthogonalLoop=1;jettySize=auto;html=1;entryX=1;entryY=0;entryDx=0;entryDy=0;exitX=0.5;exitY=1;exitDx=0;exitDy=0;" edge="1" target="yEL_NRiNMlTO7ilGv06s-47" parent="1">
          <mxGeometry relative="1" as="geometry">
            <mxPoint x="315" y="450" as="sourcePoint" />
          </mxGeometry>
        </mxCell>
        <mxCell id="yEL_NRiNMlTO7ilGv06s-46" style="edgeStyle=none;rounded=0;orthogonalLoop=1;jettySize=auto;html=1;exitX=0.5;exitY=1;exitDx=0;exitDy=0;" edge="1" target="yEL_NRiNMlTO7ilGv06s-48" parent="1">
          <mxGeometry relative="1" as="geometry">
            <mxPoint x="315" y="450" as="sourcePoint" />
          </mxGeometry>
        </mxCell>
        <mxCell id="yEL_NRiNMlTO7ilGv06s-47" value="" style="ellipse;whiteSpace=wrap;html=1;aspect=fixed;" vertex="1" parent="1">
          <mxGeometry x="257" y="470" width="40" height="40" as="geometry" />
        </mxCell>
        <mxCell id="yEL_NRiNMlTO7ilGv06s-48" value="" style="ellipse;whiteSpace=wrap;html=1;aspect=fixed;" vertex="1" parent="1">
          <mxGeometry x="333" y="470" width="40" height="40" as="geometry" />
        </mxCell>
        <mxCell id="yEL_NRiNMlTO7ilGv06s-49" value="" style="group" vertex="1" connectable="0" parent="1">
          <mxGeometry x="396.0000000000001" y="350" width="46" height="160" as="geometry" />
        </mxCell>
        <mxCell id="yEL_NRiNMlTO7ilGv06s-50" value="" style="rounded=0;whiteSpace=wrap;html=1;" vertex="1" parent="yEL_NRiNMlTO7ilGv06s-49">
          <mxGeometry x="0.9999999999998863" width="30" height="160" as="geometry" />
        </mxCell>
        <mxCell id="yEL_NRiNMlTO7ilGv06s-51" value="" style="endArrow=none;html=1;rounded=0;exitX=-0.024;exitY=0.314;exitDx=0;exitDy=0;exitPerimeter=0;" edge="1" parent="yEL_NRiNMlTO7ilGv06s-49" source="yEL_NRiNMlTO7ilGv06s-50">
          <mxGeometry width="50" height="50" relative="1" as="geometry">
            <mxPoint x="21.999999999999886" y="50" as="sourcePoint" />
            <mxPoint x="30.999999999999886" y="50" as="targetPoint" />
          </mxGeometry>
        </mxCell>
        <mxCell id="yEL_NRiNMlTO7ilGv06s-52" value="" style="endArrow=none;html=1;rounded=0;exitX=-0.024;exitY=0.314;exitDx=0;exitDy=0;exitPerimeter=0;" edge="1" parent="yEL_NRiNMlTO7ilGv06s-49">
          <mxGeometry width="50" height="50" relative="1" as="geometry">
            <mxPoint y="110.24000000000001" as="sourcePoint" />
            <mxPoint x="30.719999999999914" y="110" as="targetPoint" />
          </mxGeometry>
        </mxCell>
        <mxCell id="yEL_NRiNMlTO7ilGv06s-53" value="✅" style="text;html=1;strokeColor=none;fillColor=none;align=center;verticalAlign=middle;whiteSpace=wrap;rounded=0;" vertex="1" parent="yEL_NRiNMlTO7ilGv06s-49">
          <mxGeometry x="8" y="65" width="16" height="30" as="geometry" />
        </mxCell>
        <mxCell id="yEL_NRiNMlTO7ilGv06s-55" value="✅" style="text;html=1;strokeColor=none;fillColor=none;align=center;verticalAlign=middle;whiteSpace=wrap;rounded=0;" vertex="1" parent="yEL_NRiNMlTO7ilGv06s-49">
          <mxGeometry x="8" y="10" width="16" height="30" as="geometry" />
        </mxCell>
        <mxCell id="yEL_NRiNMlTO7ilGv06s-64" value="✅" style="text;html=1;strokeColor=none;fillColor=none;align=center;verticalAlign=middle;whiteSpace=wrap;rounded=0;" vertex="1" parent="yEL_NRiNMlTO7ilGv06s-49">
          <mxGeometry x="8" y="120" width="16" height="30" as="geometry" />
        </mxCell>
        <mxCell id="yEL_NRiNMlTO7ilGv06s-56" value="res" style="text;html=1;strokeColor=none;fillColor=none;align=center;verticalAlign=middle;whiteSpace=wrap;rounded=0;" vertex="1" parent="1">
          <mxGeometry x="381.5" y="320" width="60" height="30" as="geometry" />
        </mxCell>
        <mxCell id="yEL_NRiNMlTO7ilGv06s-57" value="0" style="text;html=1;strokeColor=none;fillColor=none;align=center;verticalAlign=middle;whiteSpace=wrap;rounded=0;" vertex="1" parent="1">
          <mxGeometry x="428" y="360" width="30" height="30" as="geometry" />
        </mxCell>
        <mxCell id="yEL_NRiNMlTO7ilGv06s-58" value="1" style="text;html=1;strokeColor=none;fillColor=none;align=center;verticalAlign=middle;whiteSpace=wrap;rounded=0;" vertex="1" parent="1">
          <mxGeometry x="428" y="415" width="30" height="30" as="geometry" />
        </mxCell>
        <mxCell id="yEL_NRiNMlTO7ilGv06s-59" value="2" style="text;html=1;strokeColor=none;fillColor=none;align=center;verticalAlign=middle;whiteSpace=wrap;rounded=0;" vertex="1" parent="1">
          <mxGeometry x="438" y="470" width="10" height="30" as="geometry" />
        </mxCell>
        <mxCell id="yEL_NRiNMlTO7ilGv06s-60" value="0" style="text;html=1;strokeColor=none;fillColor=none;align=center;verticalAlign=middle;whiteSpace=wrap;rounded=0;" vertex="1" parent="1">
          <mxGeometry x="70" y="350" width="60" height="30" as="geometry" />
        </mxCell>
        <mxCell id="yEL_NRiNMlTO7ilGv06s-61" value="1" style="text;html=1;strokeColor=none;fillColor=none;align=center;verticalAlign=middle;whiteSpace=wrap;rounded=0;" vertex="1" parent="1">
          <mxGeometry x="70" y="405" width="60" height="30" as="geometry" />
        </mxCell>
        <mxCell id="yEL_NRiNMlTO7ilGv06s-62" value="2" style="text;html=1;strokeColor=none;fillColor=none;align=center;verticalAlign=middle;whiteSpace=wrap;rounded=0;" vertex="1" parent="1">
          <mxGeometry x="70" y="472" width="60" height="30" as="geometry" />
        </mxCell>
        <mxCell id="yEL_NRiNMlTO7ilGv06s-63" value="✅" style="text;html=1;strokeColor=none;fillColor=none;align=center;verticalAlign=middle;whiteSpace=wrap;rounded=0;" vertex="1" parent="1">
          <mxGeometry x="211.0000000000001" y="475" width="16" height="30" as="geometry" />
        </mxCell>
        <mxCell id="yEL_NRiNMlTO7ilGv06s-65" value="res数组当中无该层任何节点，则添加到res" style="text;html=1;strokeColor=none;fillColor=none;align=center;verticalAlign=middle;whiteSpace=wrap;rounded=0;" vertex="1" parent="1">
          <mxGeometry x="150" y="260" width="235.5" height="30" as="geometry" />
        </mxCell>
        <mxCell id="yEL_NRiNMlTO7ilGv06s-67" value="res数组当中已有该层节点，则比大小取最值" style="text;html=1;strokeColor=none;fillColor=none;align=center;verticalAlign=middle;whiteSpace=wrap;rounded=0;" vertex="1" parent="1">
          <mxGeometry x="163" y="520" width="235.5" height="30" as="geometry" />
        </mxCell>
      </root>
    </mxGraphModel>
  </diagram>
</mxfile>
